<svg width="325" height="46" viewBox="0 0 325 46" fill="none" xmlns="http://www.w3.org/2000/svg">
<g clip-path="url(#clip0)">
<path d="M34.04 15.7127C34.04 14.6193 34.4133 13.6993 35.16 12.9527C35.9067 12.206 36.84 11.8327 37.96 11.8327C39.1067 11.8327 40.0267 12.206 40.72 12.9527C41.44 13.6993 41.8 14.6193 41.8 15.7127C41.8 16.806 41.44 17.726 40.72 18.4727C40.0267 19.2193 39.1067 19.5927 37.96 19.5927C36.84 19.5927 35.9067 19.2193 35.16 18.4727C34.4133 17.726 34.04 16.806 34.04 15.7127ZM19.68 15.7127C19.68 14.6193 20.0533 13.6993 20.8 12.9527C21.5467 12.206 22.48 11.8327 23.6 11.8327C24.7467 11.8327 25.6667 12.206 26.36 12.9527C27.08 13.6993 27.44 14.6193 27.44 15.7127C27.44 16.806 27.08 17.726 26.36 18.4727C25.6667 19.2193 24.7467 19.5927 23.6 19.5927C22.48 19.5927 21.5467 19.2193 20.8 18.4727C20.0533 17.726 19.68 16.806 19.68 15.7127ZM12.24 21.5914C15.2 23.2714 18.2 24.4981 21.24 25.2714C24.3067 26.0714 27.5467 26.4714 30.96 26.4714C34.3733 26.4714 37.6 26.0714 40.64 25.2714C43.7067 24.4981 46.72 23.2714 49.68 21.5914L49.68 27.5514C47.3067 29.1781 44.5067 30.4181 41.28 31.2714C38.08 32.1514 34.64 32.5914 30.96 32.5914C27.28 32.5914 23.84 32.1647 20.64 31.3114C17.4667 30.4581 14.6667 29.2047 12.24 27.5514L12.24 21.5914Z" fill="white"/>
<path d="M87.375 11.5V36H81.705V25.955H70.575V36H64.905V11.5H70.575V21.16H81.705V11.5H87.375ZM109.557 30.75H98.1816L96.0116 36H90.2016L101.122 11.5H106.722L117.677 36H111.727L109.557 30.75ZM107.772 26.445L103.887 17.065L100.002 26.445H107.772ZM131.073 11.5C133.243 11.5 135.122 11.8617 136.708 12.585C138.318 13.3083 139.555 14.335 140.418 15.665C141.282 16.995 141.713 18.57 141.713 20.39C141.713 22.1867 141.282 23.7617 140.418 25.115C139.555 26.445 138.318 27.4717 136.708 28.195C135.122 28.895 133.243 29.245 131.073 29.245H126.138V36H120.468V11.5H131.073ZM130.758 24.625C132.462 24.625 133.757 24.2633 134.643 23.54C135.53 22.7933 135.973 21.7433 135.973 20.39C135.973 19.0133 135.53 17.9633 134.643 17.24C133.757 16.4933 132.462 16.12 130.758 16.12H126.138V24.625H130.758ZM156.616 11.5C158.786 11.5 160.665 11.8617 162.251 12.585C163.861 13.3083 165.098 14.335 165.961 15.665C166.825 16.995 167.256 18.57 167.256 20.39C167.256 22.1867 166.825 23.7617 165.961 25.115C165.098 26.445 163.861 27.4717 162.251 28.195C160.665 28.895 158.786 29.245 156.616 29.245H151.681V36H146.011V11.5H156.616ZM156.301 24.625C158.005 24.625 159.3 24.2633 160.186 23.54C161.073 22.7933 161.516 21.7433 161.516 20.39C161.516 19.0133 161.073 17.9633 160.186 17.24C159.3 16.4933 158.005 16.12 156.301 16.12H151.681V24.625H156.301ZM183.314 27.32V36H177.644V27.25L168.159 11.5H174.179L180.724 22.385L187.269 11.5H192.834L183.314 27.32ZM217.688 11.5V36H212.018V25.955H200.888V36H195.218V11.5H200.888V21.16H212.018V11.5H217.688ZM235.599 36.42C233.056 36.42 230.757 35.8717 228.704 34.775C226.674 33.6783 225.076 32.1733 223.909 30.26C222.766 28.3233 222.194 26.1533 222.194 23.75C222.194 21.3467 222.766 19.1883 223.909 17.275C225.076 15.3383 226.674 13.8217 228.704 12.725C230.757 11.6283 233.056 11.08 235.599 11.08C238.142 11.08 240.429 11.6283 242.459 12.725C244.489 13.8217 246.087 15.3383 247.254 17.275C248.421 19.1883 249.004 21.3467 249.004 23.75C249.004 26.1533 248.421 28.3233 247.254 30.26C246.087 32.1733 244.489 33.6783 242.459 34.775C240.429 35.8717 238.142 36.42 235.599 36.42ZM235.599 31.59C237.046 31.59 238.352 31.2633 239.519 30.61C240.686 29.9333 241.596 29 242.249 27.81C242.926 26.62 243.264 25.2667 243.264 23.75C243.264 22.2333 242.926 20.88 242.249 19.69C241.596 18.5 240.686 17.5783 239.519 16.925C238.352 16.2483 237.046 15.91 235.599 15.91C234.152 15.91 232.846 16.2483 231.679 16.925C230.512 17.5783 229.591 18.5 228.914 19.69C228.261 20.88 227.934 22.2333 227.934 23.75C227.934 25.2667 228.261 26.62 228.914 27.81C229.591 29 230.512 29.9333 231.679 30.61C232.846 31.2633 234.152 31.59 235.599 31.59ZM264.4 36.42C260.9 36.42 258.17 35.4517 256.21 33.515C254.274 31.5783 253.305 28.8133 253.305 25.22V11.5H258.975V25.01C258.975 29.3967 260.795 31.59 264.435 31.59C266.209 31.59 267.562 31.065 268.495 30.015C269.429 28.9417 269.895 27.2733 269.895 25.01V11.5H275.495V25.22C275.495 28.8133 274.515 31.5783 272.555 33.515C270.619 35.4517 267.9 36.42 264.4 36.42ZM289.398 36.42C287.462 36.42 285.583 36.1633 283.763 35.65C281.967 35.1133 280.52 34.425 279.423 33.585L281.348 29.315C282.398 30.085 283.647 30.7033 285.093 31.17C286.54 31.6367 287.987 31.87 289.433 31.87C291.043 31.87 292.233 31.6367 293.003 31.17C293.773 30.68 294.158 30.0383 294.158 29.245C294.158 28.6617 293.925 28.1833 293.458 27.81C293.015 27.4133 292.432 27.0983 291.708 26.865C291.008 26.6317 290.052 26.375 288.838 26.095C286.972 25.6517 285.443 25.2083 284.253 24.765C283.063 24.3217 282.037 23.61 281.173 22.63C280.333 21.65 279.913 20.3433 279.913 18.71C279.913 17.2867 280.298 16.0033 281.068 14.86C281.838 13.6933 282.993 12.7717 284.533 12.095C286.097 11.4183 287.998 11.08 290.238 11.08C291.802 11.08 293.33 11.2667 294.823 11.64C296.317 12.0133 297.623 12.55 298.743 13.25L296.993 17.555C294.73 16.2717 292.467 15.63 290.203 15.63C288.617 15.63 287.438 15.8867 286.668 16.4C285.922 16.9133 285.548 17.59 285.548 18.43C285.548 19.27 285.98 19.9 286.843 20.32C287.73 20.7167 289.072 21.1133 290.868 21.51C292.735 21.9533 294.263 22.3967 295.453 22.84C296.643 23.2833 297.658 23.9833 298.498 24.94C299.362 25.8967 299.793 27.1917 299.793 28.825C299.793 30.225 299.397 31.5083 298.603 32.675C297.833 33.8183 296.667 34.7283 295.103 35.405C293.54 36.0817 291.638 36.42 289.398 36.42ZM322.888 31.45V36H303.918V11.5H322.433V16.05H309.553V21.37H320.928V25.78H309.553V31.45H322.888Z" fill="white"/>
</g>
<defs>
<clipPath id="clip0">
<rect width="325" height="46" fill="white"/>
</clipPath>
</defs>
</svg>
