<svg width="1442" height="90" viewBox="0 0 1442 90" fill="none" xmlns="http://www.w3.org/2000/svg">
<mask id="mask0" mask-type="alpha" maskUnits="userSpaceOnUse" x="0" y="0" width="1442" height="90">
<rect width="1442" height="90" fill="#C4C4C4"/>
</mask>
<g mask="url(#mask0)">
<path d="M855.717 713.5C1234.24 779.837 1146.83 298 1690.75 436C2504.84 642.547 2650.5 -97.2091 2352.07 -270.404C2053.64 -443.598 1153.28 -151.055 855.158 44.9693C557.037 240.994 185.256 596 855.717 713.5Z" fill="#F9C70C"/>
<path d="M856.075 712.783C903.209 721.044 943.007 720.759 977.647 714.25C1012.29 707.74 1041.88 694.985 1068.55 678.206C1095.22 661.422 1118.94 640.631 1141.84 618.079C1155.07 605.058 1167.99 591.487 1181.04 577.77C1190.63 567.706 1200.28 557.563 1210.19 547.502C1256.92 500.04 1308.96 454.654 1383.49 429.816C1458.11 404.949 1555.03 400.754 1691.23 435.31C1894.5 486.884 2055.85 479.344 2178.92 436.471C2302.04 393.582 2387.09 315.254 2437.47 224.976C2487.84 134.704 2503.5 32.5635 2487.93 -57.8167C2472.35 -148.224 2425.55 -226.727 2351.24 -269.854C2276.97 -312.954 2165.14 -327.143 2034.26 -321.017C1903.4 -314.892 1753.69 -288.465 1603.93 -250.487C1304.38 -174.526 1004.93 -52.4392 856.023 45.4712C706.991 143.465 539.718 281.095 493.392 408.825C470.24 472.662 477.318 533.964 531.873 586.624C586.44 639.294 688.622 683.437 856.075 712.783Z" stroke="white" stroke-opacity="0.6" stroke-width="2"/>
<path d="M684.475 723.5C1063 789.837 975.586 308 1519.51 446C2333.6 652.547 2479.26 -87.2091 2180.83 -260.404C1882.4 -433.598 982.037 -141.055 683.916 54.9693C385.795 250.994 14.014 606 684.475 723.5Z" fill="#F9C70C"/>
<path d="M361 642.399C361 814.221 1350.01 1049.21 1134.77 587.048C989.419 274.937 1542.59 242.925 1445.49 -17.1675C1360.91 -243.718 1129.31 11.1742 851.347 11.1742C573.386 11.1742 361 470.578 361 642.399Z" fill="url(#paint0_linear)"/>
<path d="M366 642.399C366 814.221 1356.81 1049.21 1141.18 587.048C995.565 274.937 1549.74 242.925 1452.47 -17.1675C1367.74 -243.718 1135.71 11.1742 857.242 11.1742C578.774 11.1742 366 470.578 366 642.399Z" fill="url(#paint1_linear)"/>
<path d="M367 642.399C367 663.406 382.17 685.613 408.789 707.537C435.361 729.422 473.13 750.847 517.844 770.313C607.266 809.242 724.278 840.256 834.554 851.474C944.89 862.697 1048.23 854.075 1110.49 813.994C1141.57 793.985 1162.4 766.152 1168.8 728.996C1175.21 691.801 1167.18 645.138 1140.28 587.471C1103.74 509.165 1111.07 448.294 1141.21 397.036C1171.28 345.878 1224.03 304.378 1278.1 264.628C1284.43 259.978 1290.77 255.352 1297.1 250.738C1344.94 215.846 1391.91 181.597 1423.61 142.448C1441.54 120.307 1454.55 96.6426 1460.07 70.4623C1465.58 44.2914 1463.63 15.5368 1451.53 -16.8172C1430.43 -73.2337 1400.26 -99.4636 1362.67 -107.337C1324.95 -115.238 1279.53 -104.709 1227.83 -87.0072C1205.26 -79.2794 1181.53 -70.201 1156.76 -60.723C1153.18 -59.3541 1149.58 -57.9769 1145.96 -56.5942C1117.28 -45.6409 1087.26 -34.3488 1056.12 -24.1625C993.836 -3.79029 927.008 12.1742 857.242 12.1742C718.554 12.1742 596.004 126.62 508.036 262.896C464.078 330.993 428.812 404.459 404.537 471.623C380.256 538.806 367 599.61 367 642.399Z" stroke="white" stroke-opacity="0.6" stroke-width="2"/>
<path d="M209.108 275.79C209.108 447.488 -244.105 911.198 547.74 894.564C1832.59 867.574 552.007 456.463 1142.27 126.844C1586.22 -121.066 662.294 -301 384.001 -301C105.708 -301 209.108 104.092 209.108 275.79Z" fill="url(#paint2_linear)"/>
<path d="M-36.7964 275.79C-36.7964 447.488 -588.635 911.198 375.526 894.564C1939.98 867.574 380.721 456.463 1099.44 126.844C1639.99 -121.066 515.008 -301 176.155 -301C-162.698 -301 -36.7964 104.092 -36.7964 275.79Z" fill="url(#paint3_linear)"/>
<path d="M-35.7964 275.79C-35.7964 297.479 -44.4993 323.67 -57.7146 352.769C-69.7137 379.191 -85.4893 408.125 -101.999 438.405C-103.685 441.498 -105.379 444.606 -107.078 447.725C-143.769 515.122 -182.512 588.494 -191.204 655.929C-195.545 689.616 -192.377 721.76 -177.745 750.913C-163.115 780.063 -136.973 806.323 -95.1915 828.157C-11.5759 871.851 134.499 897.722 375.508 893.564C571.047 890.191 717.752 880.816 826.189 866.355C934.651 851.891 1004.73 832.349 1047.08 808.701C1068.25 796.883 1082.44 784.069 1091.05 770.401C1099.65 756.749 1102.73 742.184 1101.58 726.778C1099.26 695.881 1079.92 661.609 1053.82 624.768C1041.15 606.894 1026.92 588.46 1012.33 569.552L1011.05 567.883C996.011 548.398 980.628 528.417 966.23 508.068C937.443 467.385 912.525 425.146 902.146 382.298C891.755 339.399 895.941 295.899 925.322 252.798C954.67 209.745 1009.1 167.173 1099.02 125.935C1166.55 94.9652 1207.89 65.1288 1228.05 36.7046C1238.11 22.5127 1242.86 8.70428 1243 -4.70779C1243.13 -18.1206 1238.64 -31.2338 1230.04 -44.0359C1212.82 -69.6797 1179.19 -93.9505 1133.75 -116.578C1088.35 -139.191 1031.27 -160.101 967.289 -179.085C711.351 -255.03 345.488 -300 176.155 -300C91.6531 -300 36.291 -274.754 0.677734 -234.36C-34.9674 -193.93 -50.9624 -138.176 -56.3947 -76.9036C-61.826 -15.6394 -56.6875 51.0113 -50.1794 113.127C-48.6777 127.46 -47.1024 141.556 -45.5677 155.289C-40.4573 201.018 -35.7964 242.725 -35.7964 275.79Z" stroke="white" stroke-opacity="0.6" stroke-width="2"/>
</g>
<defs>
<linearGradient id="paint0_linear" x1="1264.24" y1="-217.239" x2="1162.41" y2="787.365" gradientUnits="userSpaceOnUse">
<stop stop-color="#F12711"/>
<stop offset="1" stop-color="#F5AF19"/>
</linearGradient>
<linearGradient id="paint1_linear" x1="1270.88" y1="-217.239" x2="1169.24" y2="787.403" gradientUnits="userSpaceOnUse">
<stop stop-color="#F12711"/>
<stop offset="1" stop-color="#F5AF19"/>
</linearGradient>
<linearGradient id="paint2_linear" x1="541.466" y1="-287.005" x2="541.466" y2="926.989" gradientUnits="userSpaceOnUse">
<stop stop-color="#4A00E0"/>
<stop offset="1" stop-color="#8E2DE2"/>
</linearGradient>
<linearGradient id="paint3_linear" x1="367.886" y1="-287.005" x2="367.886" y2="926.989" gradientUnits="userSpaceOnUse">
<stop stop-color="#4A00E0"/>
<stop offset="1" stop-color="#8E2DE2"/>
</linearGradient>
</defs>
</svg>
