<svg xmlns="http://www.w3.org/2000/svg" height="512pt" version="1.1" viewBox="0 0 512 512" width="512pt">
    <g id="surface1">
        <path d="M 437.019531 74.980469 C 388.667969 26.628906 324.382812 0 256 0 C 187.617188 0 123.332031 26.628906 74.980469 74.980469 C 26.628906 123.332031 0 187.621094 0 256 C 0 324.382812 26.628906 388.667969 74.980469 437.019531 C 123.332031 485.371094 187.617188 512 256 512 C 324.382812 512 388.667969 485.371094 437.019531 437.019531 C 485.371094 388.667969 512 324.378906 512 256 C 512 187.621094 485.371094 123.332031 437.019531 74.980469 Z M 321.335938 151.566406 C 321.335938 143.28125 328.050781 136.566406 336.335938 136.566406 C 344.617188 136.566406 351.335938 143.28125 351.335938 151.566406 L 351.335938 167.632812 C 351.335938 175.917969 344.617188 182.632812 336.335938 182.632812 C 328.050781 182.632812 321.335938 175.917969 321.335938 167.632812 Z M 160.664062 151.566406 C 160.664062 143.28125 167.382812 136.566406 175.664062 136.566406 C 183.949219 136.566406 190.664062 143.28125 190.664062 151.566406 L 190.664062 167.632812 C 190.664062 175.917969 183.949219 182.632812 175.664062 182.632812 C 167.382812 182.632812 160.664062 175.917969 160.664062 167.632812 Z M 396.453125 270.871094 L 390.679688 270.871094 C 383.25 338.613281 325.691406 391.5 256 391.5 C 186.269531 391.5 128.675781 338.546875 121.304688 270.742188 L 115.675781 270.742188 C 107.394531 270.742188 100.675781 264.027344 100.675781 255.742188 C 100.675781 247.457031 107.394531 240.742188 115.675781 240.742188 L 155.84375 240.742188 C 164.128906 240.742188 170.84375 247.457031 170.84375 255.742188 C 170.84375 264.027344 164.128906 270.742188 155.84375 270.742188 L 151.535156 270.742188 C 158.730469 321.960938 202.828125 361.5 256 361.5 C 309.125 361.5 353.195312 322.027344 360.445312 270.871094 L 356.289062 270.871094 C 348.007812 270.871094 341.289062 264.15625 341.289062 255.871094 C 341.289062 247.589844 348.007812 240.871094 356.289062 240.871094 L 396.453125 240.871094 C 404.738281 240.871094 411.453125 247.589844 411.453125 255.871094 C 411.453125 264.15625 404.738281 270.871094 396.453125 270.871094 Z M 396.453125 270.871094 " style=" stroke:none;fill-rule:nonzero;fill:rgb(0%,0%,0%);fill-opacity:1;" />
    </g>
</svg>